<?xml version="1.0" encoding="UTF-8"?>
<svg width="16px" height="16px" viewBox="0 0 16 16" version="1.1" xmlns="http://www.w3.org/2000/svg" xmlns:xlink="http://www.w3.org/1999/xlink">
    <defs>
        <rect id="path-1" x="0" y="0" width="16" height="16"></rect>
    </defs>
    <g id="文档解析全局优化" stroke="none" stroke-width="1" fill="none" fill-rule="evenodd">
        <g id="解析结果-导航交互" transform="translate(-1801, -1685)">
            <g id="编组-2" transform="translate(1029, 1671)">
                <g id="icon-shop/icon_line/ic_ratio_default备份-2" transform="translate(772, 14)">
                    <mask id="mask-2" fill="white">
                        <use xlink:href="#path-1"></use>
                    </mask>
                    <g id="矩形"></g>
                    <g id="编组" mask="url(#mask-2)" fill="currentColor" fill-rule="nonzero">
                        <g transform="translate(2, 1.3333)" id="形状">
                            <path d="M2.66653333,2.66666667 L2.66653333,0.666666667 C2.66653333,0.29848 2.96501333,0 3.3332,0 L11.3332,0 C11.7014,0 11.9998667,0.29848 11.9998667,0.666666667 L11.9998667,10 C11.9998667,10.3682 11.7014,10.6666667 11.3332,10.6666667 L9.3332,10.6666667 L9.3332,12.6660667 C9.3332,13.0346 9.03326667,13.3333333 8.662,13.3333333 L0.671106667,13.3333333 C0.300393333,13.3333333 0,13.0369333 0,12.6660667 L0.00173333333,3.33391333 C0.0018,2.96540667 0.30176,2.66666667 0.672946667,2.66666667 L2.66653333,2.66666667 Z M1.33494667,4 L1.33346,12 L7.99986667,12 L7.99986667,4 L1.33494667,4 Z M3.99986667,2.66666667 L9.3332,2.66666667 L9.3332,9.33333333 L10.6665333,9.33333333 L10.6665333,1.33333333 L3.99986667,1.33333333 L3.99986667,2.66666667 Z"></path>
                        </g>
                    </g>
                </g>
            </g>
        </g>
    </g>
</svg>