<?xml version="1.0" encoding="UTF-8"?>
<svg width="14px" height="14px" viewBox="0 0 14 14" version="1.1" xmlns="http://www.w3.org/2000/svg" xmlns:xlink="http://www.w3.org/1999/xlink">
    <defs>
        <rect id="path-1" x="0" y="-8.8817842e-16" width="14" height="14"></rect>
    </defs>
    <g id="1.1" stroke="none" stroke-width="1" fill="none" fill-rule="evenodd">
        <g id="交互" transform="translate(-394, -433)">
            <g id="编组-8" transform="translate(95, 43)">
                <g id="编组" transform="translate(0, 14)">
                    <g id="编组-21" transform="translate(30, 303)">
                        <g id="编组-23" transform="translate(0, 36)">
                            <g id="编组-29" transform="translate(261, 32)">
                                <g id="Free/ic-building-line" transform="translate(8, 5)">
                                    <mask id="mask-2" fill="white">
                                        <use xlink:href="#path-1"></use>
                                    </mask>
                                    <g id="矩形"></g>
                                    <g id="编组" mask="url(#mask-2)" fill="#D94141" fill-rule="nonzero">
                                        <g transform="translate(1.1667, 1.1667)" id="形状">
                                            <path d="M8.75,2.33333333 L11.6666667,2.33333333 L11.6666667,3.5 L10.5,3.5 L10.5,11.0833333 C10.5,11.4055083 10.2388417,11.6666667 9.91666667,11.6666667 L1.75,11.6666667 C1.42783667,11.6666667 1.16666667,11.4055083 1.16666667,11.0833333 L1.16666667,3.5 L0,3.5 L0,2.33333333 L2.91666667,2.33333333 L2.91666667,0.583333333 C2.91666667,0.26117 3.17783667,0 3.5,0 L8.16666667,0 C8.48884167,0 8.75,0.26117 8.75,0.583333333 L8.75,2.33333333 Z M9.33333333,3.5 L2.33333333,3.5 L2.33333333,10.5 L9.33333333,10.5 L9.33333333,3.5 Z M4.08333333,5.25 L5.25,5.25 L5.25,8.75 L4.08333333,8.75 L4.08333333,5.25 Z M6.41666667,5.25 L7.58333333,5.25 L7.58333333,8.75 L6.41666667,8.75 L6.41666667,5.25 Z M4.08333333,1.16666667 L4.08333333,2.33333333 L7.58333333,2.33333333 L7.58333333,1.16666667 L4.08333333,1.16666667 Z"></path>
                                        </g>
                                    </g>
                                </g>
                            </g>
                        </g>
                    </g>
                </g>
            </g>
        </g>
    </g>
</svg>