<?xml version="1.0" encoding="UTF-8"?>
<svg width="24px" height="24px" viewBox="0 0 24 24" version="1.1" xmlns="http://www.w3.org/2000/svg" xmlns:xlink="http://www.w3.org/1999/xlink">
    <title>2-Edit/circle-plus@2x</title>
    <g id="文档解析全局优化" stroke="none" stroke-width="1" fill="none" fill-rule="evenodd">
        <g id="解析结果-导航交互" transform="translate(-1755, -1901)">
            <g id="编组-2" transform="translate(1029, 1813)">
                <g id="01.通用/1.Button-按钮/幽灵按钮/M-36PX/带图标-1-Normal" transform="translate(718, 82)">
                    <g id="2-Edit/circle-plus" transform="translate(8, 6)">
                        <g id="FileZipFilled">
                            <rect id="mask" x="0" y="0" width="24" height="24"></rect>
                        </g>
                        <path d="M5.25,1.875 L15,1.875 L20.25,7.125 L20.25,20.625 C20.25,21.4534271 19.5784271,22.125 18.75,22.125 L5.25,22.125 C4.42157288,22.125 3.75,21.4534271 3.75,20.625 L3.75,3.375 C3.75,2.54657288 4.42157288,1.875 5.25,1.875 Z" id="形状结合" fill="#B2B7C2"></path>
                        <g id="编组" transform="translate(6.375, 9.375)" fill="#FFFFFF" fill-rule="nonzero">
                            <g id="编组-2">
                                <path d="M5.22086456,5.87635575 C5.28471343,5.96312364 5.4017697,6.0021692 5.57841825,5.9978308 C5.7039877,5.9978308 5.8018893,5.98047722 5.87425136,5.94360087 C5.94661341,5.90672451 5.99769251,5.85900217 6.02961694,5.80043384 C6.06154138,5.74186551 6.08069604,5.67462039 6.08282434,5.59652928 C6.08495263,5.51843818 6.08069604,5.43817787 6.07005456,5.35357918 L5.36346038,0.635574837 C5.33153594,0.429501085 5.2506607,0.271149675 5.12083466,0.162689805 C4.99313692,0.0542299349 4.84841281,0 4.69091892,0 C4.52704015,0 4.38231604,0.0433839479 4.26100318,0.130151844 C4.13756203,0.21691974 4.04178872,0.390455531 3.96942666,0.652928416 L3.05851608,4.1670282 L2.12206596,0.670281996 C2.04544731,0.403470716 1.9475457,0.223427332 1.82623285,0.134490239 C1.70491999,0.0455531453 1.55806758,0 1.38354733,0 C1.20902708,0 1.06217467,0.0520607375 0.945118409,0.15835141 C0.828062143,0.264642082 0.755700087,0.414316703 0.728032243,0.609544469 L0.0214380551,5.35357918 C-0.0168712683,5.58785249 -0.00410149381,5.7527115 0.0618756743,5.85032538 C0.127852842,5.94793926 0.244909108,5.99566161 0.415172768,5.99566161 C0.623745751,5.99566161 0.766341566,5.94793926 0.845088509,5.85032538 C0.923835451,5.7527115 0.977042845,5.60303688 1.00471069,5.40347072 L1.38993222,2.44251627 C1.41121518,2.30802603 1.44313961,2.24078091 1.48357723,2.24078091 C1.52401485,2.24078091 1.56445247,2.30802603 1.60276179,2.44251627 C1.75599909,2.98264642 1.91136468,3.51843818 2.06673027,4.04555315 C2.22209586,4.57266811 2.37958974,5.10629067 2.53921192,5.64859002 C2.55623829,5.70932755 2.57326465,5.76138829 2.59241932,5.80260304 C2.61157398,5.84381779 2.63924182,5.88069414 2.67755115,5.91106291 C2.71586047,5.94143167 2.76481127,5.96312364 2.82440355,5.97830803 C2.88399583,5.99132321 2.96061448,6 3.05425949,6 C3.22877974,6 3.34796431,5.96746204 3.41181318,5.90455531 C3.47566205,5.83947939 3.52035626,5.75488069 3.54802411,5.64859002 L4.46744787,2.43600868 C4.50575719,2.30802603 4.54619481,2.24295011 4.59088902,2.24295011 C4.63558323,2.24295011 4.66750767,2.30802603 4.68879063,2.43600868 L5.08252534,5.45553145 C5.11232148,5.64859002 5.15701569,5.78958785 5.22086456,5.87635575 Z" id="形状"></path>
                                <path d="M8.79607501,0.0867678959 C9.22386245,0.0867678959 9.59205761,0.160520607 9.9006605,0.30802603 C10.2113917,0.457700651 10.4646589,0.659436009 10.6647187,0.919739696 C10.8647785,1.17787419 11.0116309,1.48590022 11.1074042,1.83947939 C11.2031775,2.19305857 11.25,2.57700651 11.25,2.98915401 C11.25,3.42950108 11.2010492,3.82863341 11.1031476,4.18872017 C11.005246,4.54880694 10.854137,4.85683297 10.6519489,5.11279826 C10.4497608,5.36876356 10.1964936,5.56832972 9.89640391,5.70715835 C9.59418591,5.84598698 9.24088882,5.9154013 8.83651262,5.9154013 L7.27860014,5.9154013 C7.08705352,5.9154013 6.96361237,5.88503254 6.91253327,5.81995662 C6.85932588,5.75704989 6.83378633,5.6637744 6.83378633,5.54013015 L6.83378633,0.462039046 C6.83378633,0.340563991 6.85932588,0.247288503 6.90827668,0.182212581 C6.95935578,0.119305857 7.08066863,0.0867678959 7.27860014,0.0867678959 Z M8.63006794,0.954446855 L7.9000625,0.954446855 L7.9000625,5.04555315 L8.83651262,5.04555315 C9.73465343,5.04555315 10.1815955,4.34924078 10.1837238,2.96095445 C10.1837238,2.64425163 10.1581843,2.36008677 10.1092335,2.10845987 C10.0581544,1.85683297 9.97515085,1.64642082 9.85383799,1.47722343 C9.73252513,1.30802603 9.57503125,1.17787419 9.37709974,1.08893709 C9.17916824,1 8.93015764,0.954446855 8.63006794,0.954446855 Z" id="形状结合"></path>
                            </g>
                        </g>
                        <polygon id="矩形-2" fill="#B2B7C2" fill-rule="nonzero" points="16.5 7.125 20.25 7.125 20.25 10.875"></polygon>
                        <path d="M15,1.875 L20.25,7.125 L16.5,7.125 C15.6715729,7.125 15,6.45342712 15,5.625 L15,1.875 Z" id="矩形" fill="#CCD0D9"></path>
                    </g>
                </g>
            </g>
        </g>
    </g>
</svg>