<?xml version="1.0" encoding="UTF-8"?>
<svg width="24px" height="24px" viewBox="0 0 24 24" version="1.1" xmlns="http://www.w3.org/2000/svg" xmlns:xlink="http://www.w3.org/1999/xlink">
    <title>2-Edit/circle-plus@2x</title>
    <g id="文档解析全局优化" stroke="none" stroke-width="1" fill="none" fill-rule="evenodd">
        <g id="解析结果-导航交互" transform="translate(-1755, -1723)">
            <g id="编组-2" transform="translate(1029, 1671)">
                <g id="01.通用/1.Button-按钮/幽灵按钮/M-36PX/带图标-1-Normal" transform="translate(718, 46)">
                    <g id="2-Edit/circle-plus" transform="translate(8, 6)">
                        <g id="FileZipFilled">
                            <rect id="mask" x="0" y="0" width="24" height="24"></rect>
                        </g>
                        <path d="M5.25,1.875 L15,1.875 L20.25,7.125 L20.25,20.625 C20.25,21.4534271 19.5784271,22.125 18.75,22.125 L5.25,22.125 C4.42157288,22.125 3.75,21.4534271 3.75,20.625 L3.75,3.375 C3.75,2.54657288 4.42157288,1.875 5.25,1.875 Z" id="形状结合" fill="#B2B7C2"></path>
                        <polygon id="矩形-2" fill="#B2B7C2" fill-rule="nonzero" points="16.5 7.125 20.25 7.125 20.25 10.875"></polygon>
                        <path d="M15,1.875 L20.25,7.125 L16.5,7.125 C15.6715729,7.125 15,6.45342712 15,5.625 L15,1.875 Z" id="矩形" fill="#CCD0D9"></path>
                        <path d="M12.5681818,9.76136364 L15.1818182,9.76136364 C15.5227273,9.76136364 15.75,9.53409092 15.75,9.19318183 C15.75,8.85227274 15.5227273,8.625 15.1818182,8.625 L8.81818181,8.625 C8.47727272,8.625 8.25,8.85227272 8.25,9.19318183 C8.25,9.53409094 8.47727272,9.76136364 8.81818181,9.76136364 L11.4318182,9.76136364 L11.4318182,15.5568182 C11.4318182,15.8977273 11.6590909,16.125 12,16.125 C12.3409091,16.125 12.5681818,15.8977273 12.5681818,15.5568182 L12.5681818,9.76136364 Z" id="路径" fill="#FFFFFF" fill-rule="nonzero"></path>
                    </g>
                </g>
            </g>
        </g>
    </g>
</svg>