<?xml version="1.0" encoding="UTF-8"?>
<svg width="24px" height="24px" viewBox="0 0 24 24" version="1.1" xmlns="http://www.w3.org/2000/svg" xmlns:xlink="http://www.w3.org/1999/xlink">
    <title>2-Edit/circle-plus@1x</title>
    <g id="文档解析全局优化" stroke="none" stroke-width="1" fill="none" fill-rule="evenodd">
        <g id="解析结果-导航交互" transform="translate(-826, -1795)">
            <g id="编组-2" transform="translate(100, 1671)">
                <g id="01.通用/1.Button-按钮/幽灵按钮/M-36PX/带图标-1-Normal" transform="translate(718, 118)">
                    <g id="FileZipFilled" transform="translate(8, 6)">
                        <rect id="mask" x="0" y="0" width="24" height="24"></rect>
                        <g transform="translate(1.875, 3)">
                            <path d="M2.64474271,0 L9.18578099,0 C9.86461212,0 10.4844154,0.383673784 10.783995,0.989334631 L11.0512406,1.52962565 C11.5144254,2.46604731 12.4727128,3.05925131 13.5222642,3.05925131 L17.6054361,3.05925131 C18.1956192,3.05925131 18.6740571,3.53494876 18.6740571,4.12175131 L18.6740571,14.5208333 L1.57612175,14.5208333 L1.57612175,1.0625 C1.57612175,0.475697453 2.05455965,0 2.64474271,0 Z" id="矩形" fill="#B2B7C2"></path>
                            <path d="M1.06879981,4.60416667 L19.181379,4.60416667 C19.7715621,4.60416667 20.25,5.07986412 20.25,5.66666667 C20.25,5.72856909 20.2445591,5.7903531 20.2337394,5.85131358 L18.5255937,15.4753626 C18.4054411,16.1523272 17.8138316,16.6458333 17.1224466,16.6458333 L3.12773227,16.6458333 C2.43634723,16.6458333 1.84473771,16.1523272 1.72458514,15.4753626 L0.0164394558,5.85131358 C-0.0861257042,5.27344008 0.301886583,4.72231181 0.883089157,4.62033414 C0.944400832,4.6095764 1.00654077,4.60416667 1.06879981,4.60416667 Z" id="矩形" fill="#CCD0D9"></path>
                            <rect id="矩形" fill="#FFFFFF" x="9.76888244" y="4.60416667" width="1" height="12.0416667"></rect>
                            <path d="M10.1250894,5.3125 L10.8375034,5.3125 C11.0342311,5.3125 11.1937104,5.47106582 11.1937104,5.66666667 C11.1937104,5.86226752 11.0342311,6.02083333 10.8375034,6.02083333 L10.1250894,6.02083333 C9.92836174,6.02083333 9.76888244,5.86226752 9.76888244,5.66666667 C9.76888244,5.47106582 9.92836174,5.3125 10.1250894,5.3125 Z" id="矩形" fill="#FFFFFF"></path>
                            <path d="M10.1250894,7.4375 L10.8375034,7.4375 C11.0342311,7.4375 11.1937104,7.59606582 11.1937104,7.79166667 C11.1937104,7.98726752 11.0342311,8.14583333 10.8375034,8.14583333 L10.1250894,8.14583333 C9.92836174,8.14583333 9.76888244,7.98726752 9.76888244,7.79166667 C9.76888244,7.59606582 9.92836174,7.4375 10.1250894,7.4375 Z" id="矩形备份-2" fill="#FFFFFF"></path>
                            <path d="M10.1250894,9.5625 L10.8375034,9.5625 C11.0342311,9.5625 11.1937104,9.72106582 11.1937104,9.91666667 C11.1937104,10.1122675 11.0342311,10.2708333 10.8375034,10.2708333 L10.1250894,10.2708333 C9.92836174,10.2708333 9.76888244,10.1122675 9.76888244,9.91666667 C9.76888244,9.72106582 9.92836174,9.5625 10.1250894,9.5625 Z" id="矩形备份-4" fill="#FFFFFF"></path>
                            <path d="M10.1250894,11.6875 L10.8375034,11.6875 C11.0342311,11.6875 11.1937104,11.8460658 11.1937104,12.0416667 C11.1937104,12.2372675 11.0342311,12.3958333 10.8375034,12.3958333 L10.1250894,12.3958333 C9.92836174,12.3958333 9.76888244,12.2372675 9.76888244,12.0416667 C9.76888244,11.8460658 9.92836174,11.6875 10.1250894,11.6875 Z" id="矩形备份-7" fill="#FFFFFF"></path>
                            <path d="M9.05646846,6.375 L9.76888244,6.375 C9.96561012,6.375 10.1250894,6.53356582 10.1250894,6.72916667 C10.1250894,6.92476752 9.96561012,7.08333333 9.76888244,7.08333333 L9.05646846,7.08333333 C8.85974078,7.08333333 8.70026148,6.92476752 8.70026148,6.72916667 C8.70026148,6.53356582 8.85974078,6.375 9.05646846,6.375 Z" id="矩形备份" fill="#FFFFFF"></path>
                            <path d="M9.05646846,8.5 L9.76888244,8.5 C9.96561012,8.5 10.1250894,8.65856582 10.1250894,8.85416667 C10.1250894,9.04976752 9.96561012,9.20833333 9.76888244,9.20833333 L9.05646846,9.20833333 C8.85974078,9.20833333 8.70026148,9.04976752 8.70026148,8.85416667 C8.70026148,8.65856582 8.85974078,8.5 9.05646846,8.5 Z" id="矩形备份-3" fill="#FFFFFF"></path>
                            <path d="M9.05646846,10.625 L9.76888244,10.625 C9.96561012,10.625 10.1250894,10.7835658 10.1250894,10.9791667 C10.1250894,11.1747675 9.96561012,11.3333333 9.76888244,11.3333333 L9.05646846,11.3333333 C8.85974078,11.3333333 8.70026148,11.1747675 8.70026148,10.9791667 C8.70026148,10.7835658 8.85974078,10.625 9.05646846,10.625 Z" id="矩形备份-5" fill="#FFFFFF"></path>
                            <path d="M11.1937104,12.75 C11.7838934,12.75 12.2623313,13.2256975 12.2623313,13.8125 L12.2623313,18.0625 C12.2623313,18.6493025 11.7838934,19.125 11.1937104,19.125 L9.05646846,19.125 C8.46628541,19.125 7.98784751,18.6493025 7.98784751,18.0625 L7.98784751,13.8125 C7.98784751,13.2256975 8.46628541,12.75 9.05646846,12.75 L11.1937104,12.75 Z M10.1250894,15.9375 C9.73163405,15.9375 9.41267545,16.2546316 9.41267545,16.6458333 L9.41267545,17.3541667 C9.41267545,17.7453684 9.73163405,18.0625 10.1250894,18.0625 C10.5185448,18.0625 10.8375034,17.7453684 10.8375034,17.3541667 L10.8375034,16.6458333 C10.8375034,16.2546316 10.5185448,15.9375 10.1250894,15.9375 Z" id="形状" fill="#959BA6"></path>
                            <path d="M10.1250894,12.0416667 C10.5185448,12.0416667 10.8375034,12.3606253 10.8375034,12.7540806 L10.8375034,13.7214079 C10.8375034,13.9673175 10.6381543,14.1666667 10.3922447,14.1666667 L9.85793418,14.1666667 C9.61202458,14.1666667 9.41267545,13.9673175 9.41267545,13.7214079 L9.41267545,12.7540806 C9.41267545,12.3606253 9.73163405,12.0416667 10.1250894,12.0416667 Z" id="矩形备份-6" fill="#757A85"></path>
                        </g>
                    </g>
                </g>
            </g>
        </g>
    </g>
</svg>