<?xml version="1.0" encoding="UTF-8"?>
<svg width="24px" height="24px" viewBox="0 0 24 24" version="1.1" xmlns="http://www.w3.org/2000/svg" xmlns:xlink="http://www.w3.org/1999/xlink">
    <title>2-Edit/circle-plus@2x</title>
    <g id="文档解析全局优化" stroke="none" stroke-width="1" fill="none" fill-rule="evenodd">
        <g id="解析结果-导航交互" transform="translate(-1742, -1052)">
            <g id="编组-2" transform="translate(1029, 1002)">
                <g id="FileExcelFilled" transform="translate(713, 50)">
                    <rect id="mask" x="0" y="0" width="24" height="24"></rect>
                    <g transform="translate(3.75, 1.5)">
                        <path d="M1.5,0 L11.25,0 L16.5,5.25 L16.5,19.5 C16.5,20.3284271 15.8284271,21 15,21 L1.5,21 C0.671572875,21 0,20.3284271 0,19.5 L0,1.5 C0,0.671572875 0.671572875,0 1.5,0 Z" id="矩形" fill="#B2B7C2"></path>
                        <path d="M11.25,0 L16.5,5.25 L13.125,5.25 C12.0894661,5.25 11.25,4.41053391 11.25,3.375 L11.25,0 L11.25,0 Z" id="矩形" fill="#CCD0D9"></path>
                        <polygon id="矩形" fill="#B2B7C2" fill-rule="nonzero" points="12.75 5.25 16.5 5.25 16.5 9"></polygon>
                        <path d="M12.2109328,6.91406721 C12.4296891,7.13282349 12.4296891,7.48749749 12.2109328,7.70625377 L9.042375,10.875 L12.2109328,14.0437462 C12.4296891,14.2625025 12.4296891,14.6171765 12.2109328,14.8359328 C11.9921765,15.0546891 11.6375025,15.0546891 11.4187462,14.8359328 L8.25,11.667375 L5.08125377,14.8359328 C4.86249749,15.0546891 4.50782349,15.0546891 4.28906721,14.8359328 C4.07031093,14.6171765 4.07031093,14.2625025 4.28906721,14.0437462 L7.457625,10.875 L4.28906721,7.70625377 C4.07031093,7.48749749 4.07031093,7.13282349 4.28906721,6.91406721 C4.50782349,6.69531093 4.86249749,6.69531093 5.08125377,6.91406721 L8.25,10.082625 L11.4187462,6.91406721 C11.6375025,6.69531093 11.9921765,6.69531093 12.2109328,6.91406721 Z" id="路径" fill="#FFFFFF"></path>
                    </g>
                </g>
            </g>
        </g>
    </g>
</svg>