<?xml version="1.0" encoding="UTF-8"?>
<svg width="14px" height="14px" viewBox="0 0 14 14" version="1.1" xmlns="http://www.w3.org/2000/svg" xmlns:xlink="http://www.w3.org/1999/xlink">
    <g id="文档解析全局优化" stroke="none" stroke-width="1" fill="none" fill-rule="evenodd">
        <g id="标签状态交互" transform="translate(-1288, -847)" fill="currentColor" fill-rule="nonzero">
            <g id="编组-3" transform="translate(1016, 838)">
                <g id="编组-5" transform="translate(189, 0)">
                    <g id="段落" transform="translate(71, 0)">
                        <g id="编组备份-5" transform="translate(12, 6)">
                            <g id="icon\gongshi" transform="translate(0.875, 3.875)">
                                <path d="M11.6688719,9.70603412 C11.3784266,9.70603412 11.1364284,9.89461298 11.1364284,10.1772502 L11.1364284,10.7425246 C11.1364284,11.0251618 10.9426399,11.2137406 10.6037474,11.2137406 L1.59780543,11.2137406 C1.30736013,11.2137406 1.06536194,11.0251618 1.06536195,10.7425246 L1.01786475,3.48593582 C1.01786475,3.39164639 1.11452153,3.20306752 1.21141581,3.10900919 L3.24500794,1.13008659 C3.34190221,1.03579716 3.48724361,0.941507725 3.68079466,0.941507725 L10.6521946,0.941507725 C10.9426399,0.941507725 11.1846381,1.13008659 11.184638,1.4127238 L11.184638,2.21372177 C11.184638,2.49635897 11.3784266,2.68493783 11.717319,2.68493785 C12.0562115,2.68493786 12.25,2.40230065 12.25,2.21372177 L12.25,1.46056182 C12.25,0.659563836 11.523768,0 10.7488513,0 L3.53450332,0 C3.24405801,0 2.95361269,0.141203044 2.76006165,0.329781925 L0.532680969,2.40299394 C0.242235664,2.68563114 2.22044605e-16,3.1097025 2.22044605e-16,3.48662912 L0.0474971843,10.7894382 C0.0474971843,11.5904362 0.773729208,12.25 1.54864584,12.25 L10.6037474,12.25 C11.4268737,12.25 12.1046586,11.5432914 12.1046586,10.7894382 L12.1046586,10.2243949 C12.2015529,9.9415266 11.9593172,9.70603412 11.6688719,9.70603412 Z" id="路径"></path>
                                <path d="M4.59986527,4.14619296 L6.43966887,4.14619296 C6.73011418,4.14619296 6.87546349,3.9578452 6.87546349,3.72212162 C6.87615427,3.60938027 6.83048852,3.50104965 6.74863146,3.42126294 C6.66677439,3.34147623 6.55552579,3.29686122 6.43966887,3.29735287 L4.59986527,3.29735287 C3.87363324,3.29735287 3.24405801,3.91000716 3.24405801,4.61671572 L3.24405801,8.95218085 C3.24405801,9.23481804 3.43784654,9.37625219 3.67984471,9.37625219 C3.97052751,9.37625219 4.11563142,9.18767333 4.11563142,8.95218085 L4.11563142,6.87943103 L6.39122174,6.87943103 C6.68190454,6.87943103 6.82700844,6.69108327 6.82700846,6.45535967 C6.82700846,6.17272248 6.63345742,6.03128832 6.39122174,6.03128832 L4.16407855,6.03128832 L4.16407855,4.71169845 C4.16407855,4.33477183 4.35762959,4.14619296 4.59986527,4.14619296 L4.59986527,4.14619296 Z M8.27970998,8.15233838 C8.47349853,8.15233838 8.57110524,8.15048956 8.6660996,8.05804895 L9.87727792,6.83321071 L11.1359534,8.05804895 C11.2326102,8.15233838 11.3295045,8.15233838 11.523293,8.15233838 C11.7170815,8.15233838 11.8137383,8.15233838 11.9106326,8.05804895 C12.1041836,7.86970119 12.1041836,7.6339776 11.9106326,7.44562983 L10.4579311,6.2207916 L11.7166066,4.99595336 C11.9103951,4.8076056 11.9103951,4.57188202 11.7166066,4.38330315 C11.522818,4.19472429 11.2808199,4.19495539 11.0870313,4.38330315 L9.82835582,5.60814138 L8.56968032,4.38330315 C8.37589179,4.19495539 8.13389362,4.19495539 7.94010507,4.38330315 C7.74631653,4.57165091 7.74655403,4.8076056 7.94010507,4.99595336 L9.19878059,6.2207916 L7.94010507,7.44562983 C7.74655403,7.63397759 7.74655403,7.9166148 7.89260789,8.05804895 C7.98902717,8.15233838 8.08592144,8.15233838 8.27970998,8.15233838 Z" id="形状"></path>
                            </g>
                        </g>
                    </g>
                </g>
            </g>
        </g>
    </g>
</svg>