<?xml version="1.0" encoding="UTF-8"?>
<svg width="14px" height="14px" viewBox="0 0 14 14" version="1.1" xmlns="http://www.w3.org/2000/svg" xmlns:xlink="http://www.w3.org/1999/xlink">
    <g id="文档解析全局优化" stroke="none" stroke-width="1" fill="none" fill-rule="evenodd">
        <g id="标签状态交互" transform="translate(-1501, -847)">
            <g id="编组-3" transform="translate(1016, 838)">
                <g id="编组-5" transform="translate(189, 0)">
                    <g id="公式" transform="translate(284, 0)">
                        <g id="编组备份-4" transform="translate(11.9992, 6)">
                            <g id="icon_gongshi" transform="translate(0.875, 3.875)">
                                <g id="编组-2" transform="translate(-0, 0)">
                                    <g id="编组">
                                        <g id="编组备份-2" stroke="currentColor" stroke-width="0.875">
                                            <path d="M10.9375,0.4375 C11.1791246,0.4375 11.3978746,0.535437711 11.5562184,0.693781566 C11.7145623,0.852125422 11.8125,1.07087542 11.8125,1.3125 L11.8125,10.5 C11.8125,10.8624369 11.6655934,11.1905619 11.4280777,11.4280777 C11.1905619,11.6655934 10.8624369,11.8125 10.5,11.8125 L1.75,11.8125 C1.38756313,11.8125 1.05943813,11.6655934 0.82192235,11.4280777 C0.584406566,11.1905619 0.4375,10.8624369 0.4375,10.5 L0.4375,1.75 C0.4375,1.38756313 0.584406566,1.05943813 0.82192235,0.82192235 C1.05943813,0.584406566 1.38756313,0.4375 1.75,0.4375 Z" id="矩形"></path>
                                        </g>
                                        <path d="M4.08302858,8.16563883 L4.08302858,7.11884149 L7.87159314,3.32488764 L8.53983359,3.99382739 C8.53983359,3.99382739 8.75062085,4.18934672 8.95243843,3.99382739 C9.15425602,3.79830805 8.95243843,3.58082025 8.95243843,3.58082025 L8.07789556,2.70537693 C8.07789556,2.70537693 7.86038106,2.51095602 7.66529072,2.70537693 C7.47020039,2.89979785 3.61884813,6.75746025 3.61884813,6.75746025 C3.61884813,6.75746025 3.5,6.85741676 3.5,7.05732979 L3.5,8.45781942 C3.5,8.45781942 3.50896967,8.70606307 3.76124165,8.75 L5.24796453,8.75 C5.24796453,8.75 5.37914597,8.73901577 5.50247893,8.61599236 L10.1611015,3.93890622 C10.1611015,3.93890622 10.8943721,3.13046672 10.2037075,2.23635021 C10.2037075,2.23635021 9.51080042,1.32246208 8.39968249,2.00018922 C8.39968249,2.00018922 8.16534985,2.16055901 8.16310743,2.33740515 C8.16086502,2.51425128 8.32456151,2.65594789 8.49722766,2.62629046 C8.49722766,2.62629046 8.58692436,2.60871568 8.65980294,2.54390872 C8.65980294,2.54390872 9.07352898,2.11222839 9.61619405,2.47470805 C9.61619405,2.47470805 9.94246582,2.70647535 9.90995076,3.09531718 C9.90995076,3.09531718 9.95143549,3.38090722 9.51977009,3.7675522 L5.12799519,8.16563883 L4.08302858,8.16563883 Z" id="路径" fill="currentColor" fill-rule="nonzero"></path>
                                    </g>
                                    <rect id="矩形备份-2" stroke="currentColor" stroke-width="0.875" x="2.1875" y="10.0625" width="6.125" height="1" rx="0.4375"></rect>
                                </g>
                            </g>
                        </g>
                    </g>
                </g>
            </g>
        </g>
    </g>
</svg>