<?xml version="1.0" encoding="UTF-8"?>
<svg width="14px" height="14px" viewBox="0 0 14 14" version="1.1" xmlns="http://www.w3.org/2000/svg" xmlns:xlink="http://www.w3.org/1999/xlink">
    <g id="文档解析全局优化" stroke="none" stroke-width="1" fill="none" fill-rule="evenodd">
        <g id="标签状态交互" transform="translate(-1430, -847)" stroke="currentColor">
            <g id="编组-3" transform="translate(1016, 838)">
                <g id="编组-5" transform="translate(189, 0)">
                    <g id="图片" transform="translate(213, 0)">
                        <g id="编组备份-2" transform="translate(12.001, 6)">
                            <g id="icon_表格" transform="translate(0.875, 3.875)">
                                <g id="编组备份">
                                    <path d="M10.9375,0.5 C11.1618657,0.5 11.3649907,0.59094216 11.5120243,0.73797574 C11.6590578,0.88500932 11.75,1.08813432 11.75,1.3125 L11.75,10.25 C11.75,10.6642136 11.5821068,11.0392136 11.3106602,11.3106602 C11.0392136,11.5821068 10.6642136,11.75 10.25,11.75 L2,11.75 C1.58578644,11.75 1.21078644,11.5821068 0.939339828,11.3106602 C0.667893219,11.0392136 0.5,10.6642136 0.5,10.25 L0.5,2 C0.5,1.58578644 0.667893219,1.21078644 0.939339828,0.939339828 C1.21078644,0.667893219 1.58578644,0.5 2,0.5 Z" id="矩形"></path>
                                    <path d="M0.4375,7.4375 L1.78844949,6.53686701 C2.54029221,6.03563853 3.53482891,6.1007878 4.21485909,6.69581421 L10.0625,11.8125 L10.0625,11.8125" id="路径"></path>
                                </g>
                                <circle id="椭圆形" fill="currentColor" cx="8.75" cy="3.5" r="1"></circle>
                            </g>
                        </g>
                    </g>
                </g>
            </g>
        </g>
    </g>
</svg>