<?xml version="1.0" encoding="UTF-8"?>
<svg width="16px" height="16px" viewBox="0 0 16 16" version="1.1" xmlns="http://www.w3.org/2000/svg" xmlns:xlink="http://www.w3.org/1999/xlink">
    <g id="文档解析全局优化" stroke="none" stroke-width="1" fill="none" fill-rule="evenodd">
        <g id="工作台使用-通用文档解析-导航收起-1440" transform="translate(-100, -14)">
            <g id="编组-4" transform="translate(80, 0)">
                <g id="编组-8" transform="translate(16, 10)">
                    <g id="Editor/ic-list-view" transform="translate(4, 4)">
                        <rect id="矩形" x="0" y="0" width="16" height="16"></rect>
                        <g id="编组" transform="translate(1.5, 2)" fill="#000000" fill-rule="nonzero">
                            <path d="M3.61111111,0.355029586 L13,0.355029586 L13,1.77514793 L3.61111111,1.77514793 L3.61111111,0.355029586 Z M1.08333333,2.13017751 C0.485022778,2.13017751 0,1.65332308 0,1.06508876 C0,0.476854438 0.485022778,0 1.08333333,0 C1.68164389,0 2.16666667,0.476854438 2.16666667,1.06508876 C2.16666667,1.65332308 1.68164389,2.13017751 1.08333333,2.13017751 Z M1.08333333,7.10059172 C0.485022778,7.10059172 0,6.62371598 0,6.03550296 C0,5.44728994 0.485022778,4.9704142 1.08333333,4.9704142 C1.68164389,4.9704142 2.16666667,5.44728994 2.16666667,6.03550296 C2.16666667,6.62371598 1.68164389,7.10059172 1.08333333,7.10059172 Z M1.08333333,12 C0.485022778,12 0,11.5231243 0,10.9349112 C0,10.3466982 0.485022778,9.86982249 1.08333333,9.86982249 C1.68164389,9.86982249 2.16666667,10.3466982 2.16666667,10.9349112 C2.16666667,11.5231243 1.68164389,12 1.08333333,12 Z M3.61111111,5.32544379 L13,5.32544379 L13,6.74556213 L3.61111111,6.74556213 L3.61111111,5.32544379 Z M3.61111111,10.295858 L13,10.295858 L13,11.7159763 L3.61111111,11.7159763 L3.61111111,10.295858 Z" id="形状"></path>
                        </g>
                    </g>
                </g>
            </g>
        </g>
    </g>
</svg>