<?xml version="1.0" encoding="UTF-8"?>
<svg width="14px" height="14px" viewBox="0 0 14 14" version="1.1" xmlns="http://www.w3.org/2000/svg" xmlns:xlink="http://www.w3.org/1999/xlink">
    <g id="文档解析全局优化" stroke="none" stroke-width="1" fill="none" fill-rule="evenodd">
        <g id="标签状态交互" transform="translate(-1359, -847)" fill="currentColor" fill-rule="nonzero">
            <g id="编组-3" transform="translate(1016, 838)">
                <g id="编组-5" transform="translate(189, 0)">
                    <g id="表格" transform="translate(142, 0)">
                        <g id="编组备份" transform="translate(12, 6)">
                            <g id="icon\biaoge" transform="translate(0.875, 3.875)">
                                <path d="M12.25,4.3764113 L12.25,1.75021874 C12.25,0.783604838 11.4663952,0 10.4997813,0 L1.75021874,0 C0.783604838,0 2.22044605e-16,0.783604838 2.22044605e-16,1.75021874 L2.22044605e-16,10.4997813 C2.22044605e-16,11.4663952 0.783604838,12.25 1.75021874,12.25 L10.4997813,12.25 C11.4663952,12.25 12.25,11.4663952 12.25,10.4997813 L12.25,4.3764113 Z M1.13114919,1.13114919 C1.29522284,0.966226433 1.51842275,0.873745198 1.75105847,0.874291924 L10.5021522,0.874291924 C10.7343054,0.87456898 10.9568243,0.967132867 11.12068,1.13159089 C11.2845358,1.29604891 11.3762827,1.51890588 11.3757084,1.75105847 L11.3757084,3.50211694 L0.874291924,3.50211694 L0.874291924,1.75105847 C0.873745198,1.51842275 0.966226433,1.29522284 1.13114919,1.13114919 Z M4.81108871,7.43891129 L4.81108871,4.3764113 L7.43891129,4.3764113 L7.43891129,7.43891129 L4.81108871,7.43891129 Z M7.43891129,8.31320565 L7.43891129,11.3757057 L4.81108871,11.3757057 L4.81108871,8.31320565 L7.43891129,8.31320565 Z M3.93679435,7.43891129 L0.874294356,7.43891129 L0.874294356,4.3764113 L3.93679435,4.3764113 L3.93679435,7.43891129 Z M1.13114919,11.1203327 C0.966303149,10.9569157 0.873793934,10.7342709 0.874292336,10.5021522 L0.874292336,8.31320565 L3.93679435,8.31320565 L3.93679435,11.3757156 L1.75105847,11.3757156 C1.51860316,11.3768178 1.29537037,11.2848566 1.13114919,11.1203327 Z M11.3757073,10.5021522 C11.3761526,10.7339697 11.2842613,10.9564213 11.1203413,11.1203413 C10.9564213,11.2842613 10.7339697,11.3761526 10.5021522,11.3757073 L8.31320565,11.3757073 L8.31320565,8.31320565 L11.3757073,8.31320565 L11.3757073,10.5021522 L11.3757073,10.5021522 Z M11.3757057,7.43891129 L8.31320565,7.43891129 L8.31320565,4.3764113 L11.3757057,4.3764113 L11.3757057,7.43891129 Z" id="形状"></path>
                            </g>
                        </g>
                    </g>
                </g>
            </g>
        </g>
    </g>
</svg>